<?xml version="1.0" encoding="UTF-8" standalone="no"?>
<!DOCTYPE svg PUBLIC "-//W3C//DTD SVG 1.1//EN" "http://www.w3.org/Graphics/SVG/1.1/DTD/svg11.dtd">
<svg xmlns="http://www.w3.org/2000/svg" xmlns:xlink="http://www.w3.org/1999/xlink" version="1.1" width="85pt" height="85pt" viewBox="0 0 85 85">
<g enable-background="new">
<clipPath id="cp0">
<path transform="matrix(1,0,0,-1,0,85)" d="M 12.40975 72.43675 C -4.13725 55.88575 -4.13725 28.95975 12.41375 12.40975 C 28.95675 -4.13725 55.88675 -4.13725 72.43275 12.41375 C 88.98375 28.95975 88.97975 55.88575 72.43675 72.43275 C 55.88675 88.98375 28.95675 88.98375 12.40975 72.43675 Z M 67.80375 17.04275 C 53.81175 3.04575 31.03475 3.04575 17.04275 17.03875 C 3.04275 31.03475 3.04675 53.81175 17.04275 67.80775 C 31.03475 81.79975 53.80775 81.79975 67.80775 67.80375 C 81.80375 53.81175 81.80075 31.03475 67.80375 17.04275 Z M 61.61275 25.64775 C 62.13675 24.42875 61.57775 23.01475 60.36275 22.49175 C 59.14375 21.96375 57.73375 22.52275 57.20675 23.74175 C 54.88975 29.09275 49.42175 32.54975 43.26875 32.54975 C 36.97575 32.54975 31.47175 29.09275 29.25375 23.74575 C 28.86675 22.82375 27.97575 22.26475 27.03475 22.26475 C 26.72575 22.26475 26.41775 22.32375 26.11675 22.44875 C 24.88975 22.95975 24.31175 24.36275 24.81975 25.58475 C 27.78875 32.73375 35.03075 37.35075 43.27275 37.35075 C 51.33975 37.35075 58.53875 32.75675 61.61275 25.64775 Z M 23.70675 54.71375 C 23.16375 55.65575 23.48775 56.85475 24.42875 57.39375 L 31.66775 61.54975 C 32.60875 62.08875 33.80775 61.76475 34.34675 60.82375 C 34.88975 59.88575 34.56575 58.68275 33.62475 58.14375 L 26.38675 53.98775 C 25.44475 53.44875 24.24575 53.77275 23.70675 54.71375 Z M 34.93275 54.62775 C 36.28475 53.27675 36.28475 51.08475 34.93275 49.73775 C 33.58175 48.38575 31.39375 48.38575 30.03875 49.73775 C 28.69075 51.08875 28.69075 53.28075 30.03875 54.62775 C 31.38975 55.97975 33.58175 55.97975 34.93275 54.62775 Z M 46.69475 66.37475 C 46.79275 67.45675 47.74575 68.25275 48.82375 68.15575 L 57.13675 67.40975 C 58.21875 67.31175 59.01475 66.35875 58.91775 65.27675 C 58.81975 64.19475 57.86675 63.39775 56.78475 63.49575 L 48.47575 64.24575 C 47.39375 64.33875 46.59675 65.29575 46.69475 66.37475 Z M 55.56975 54.68675 C 56.91775 53.33475 56.91775 51.14375 55.56975 49.79575 C 54.21475 48.44475 52.02275 48.44475 50.67575 49.79275 C 49.32375 51.14375 49.32375 53.33475 50.67575 54.68675 C 52.02675 56.03875 54.21475 56.03875 55.56975 54.68675 Z " fill-rule="evenodd"/>
</clipPath>
<g clip-path="url(#cp0)">
<clipPath id="cp1">
<path transform="matrix(1,0,0,-1,0,85)" d="M -145 -364 L 230 -364 L 230 303 L -145 303 Z "/>
</clipPath>
<g clip-path="url(#cp1)">
<path transform="matrix(1,0,0,-1,0,85)" d="M -5 -5 L 89.845 -5 L 89.845 89.8465 L -5 89.8465 Z " fill="#b0b0b0"/>
</g>
</g>
</g>
</svg>
