<?xml version="1.0" encoding="UTF-8"?>
<svg xmlns="http://www.w3.org/2000/svg" xmlns:xlink="http://www.w3.org/1999/xlink" width="85pt" height="85pt" viewBox="0 0 85 85" version="1.1">
<defs>
<clipPath fill="red" id="clip1">
  <path fill="red" d="M 12.410156 12.5625 C -4.136719 29.113281 -4.136719 56.039063 12.414063 72.589844 C 28.957031 89.136719 55.886719 89.136719 72.433594 72.585938 C 88.984375 56.039063 88.980469 29.113281 72.4375 12.566406 C 55.886719 -3.984375 28.957031 -3.984375 12.410156 12.5625 Z M 67.804688 67.957031 C 53.8125 81.953125 31.035156 81.953125 17.042969 67.960938 C 3.042969 53.964844 3.046875 31.1875 17.042969 17.191406 C 31.035156 3.199219 53.808594 3.199219 67.808594 17.195313 C 81.804688 31.1875 81.800781 53.964844 67.804688 67.957031 Z M 61.613281 59.351563 C 62.136719 60.570313 61.578125 61.984375 60.363281 62.507813 C 59.144531 63.035156 57.734375 62.476563 57.207031 61.257813 C 54.890625 55.90625 49.421875 52.449219 43.269531 52.449219 C 36.976563 52.449219 31.472656 55.90625 29.253906 61.253906 C 28.867188 62.175781 27.976563 62.734375 27.035156 62.734375 C 26.726563 62.734375 26.417969 62.675781 26.117188 62.550781 C 24.890625 62.039063 24.3125 60.636719 24.820313 59.414063 C 27.789063 52.265625 35.03125 47.648438 43.273438 47.648438 C 51.339844 47.648438 58.539063 52.242188 61.613281 59.351563 Z M 23.707031 30.285156 C 23.164063 29.34375 23.488281 28.144531 24.429688 27.605469 L 31.667969 23.449219 C 32.609375 22.910156 33.808594 23.234375 34.347656 24.175781 C 34.890625 25.113281 34.566406 26.316406 33.625 26.855469 L 26.386719 31.011719 C 25.445313 31.550781 24.246094 31.226563 23.707031 30.285156 Z M 34.933594 30.371094 C 36.285156 31.722656 36.285156 33.914063 34.933594 35.261719 C 33.582031 36.613281 31.394531 36.613281 30.039063 35.261719 C 28.691406 33.910156 28.691406 31.71875 30.039063 30.371094 C 31.390625 29.019531 33.582031 29.019531 34.933594 30.371094 Z M 46.695313 18.625 C 46.792969 17.542969 47.746094 16.746094 48.824219 16.84375 L 57.136719 17.589844 C 58.21875 17.6875 59.015625 18.640625 58.917969 19.722656 C 58.820313 20.804688 57.867188 21.601563 56.785156 21.503906 L 48.476563 20.753906 C 47.394531 20.660156 46.597656 19.703125 46.695313 18.625 Z M 55.570313 30.3125 C 56.917969 31.664063 56.917969 33.855469 55.570313 35.203125 C 54.214844 36.554688 52.023438 36.554688 50.675781 35.207031 C 49.324219 33.855469 49.324219 31.664063 50.675781 30.3125 C 52.027344 28.960938 54.214844 28.960938 55.570313 30.3125 Z M 55.570313 30.3125 "/>
</clipPath>
</defs>
<g id="surface1">
<g clip-path="url(#clip1)" clip-rule="evenodd">
<rect fill="red" x="0" y="0" width="85" height="85" style="fill:rgb(69.020081%,69.020081%,69.020081%);fill-opacity:1;stroke:none;"/>
</g>
</g>
</svg>
